<svg width="24" height="24" viewBox="0 0 24 24" fill="none" xmlns="http://www.w3.org/2000/svg">
<path d="M9.88299 2.207C10.3587 2.15095 10.8379 2.2766 11.2249 2.55881C11.6119 2.84102 11.878 3.25897 11.97 3.729L11.995 3.896L12 4V11C12 11.2449 12.0899 11.4813 12.2527 11.6644C12.4155 11.8474 12.6397 11.9643 12.883 11.993L13 12H19.8C20.3304 12 20.8391 12.2107 21.2142 12.5858C21.5893 12.9609 21.8 13.4696 21.8 14C21.7999 14.0761 21.7912 14.1519 21.774 14.226C21.3738 15.9527 20.5219 17.5419 19.3055 18.8311C18.0891 20.1202 16.5519 21.0629 14.8513 21.5625C13.1508 22.0622 11.348 22.1009 9.62757 21.6747C7.90715 21.2485 6.33092 20.3727 5.06029 19.137C3.78967 17.9012 2.87031 16.35 2.39636 14.6421C1.92242 12.9342 1.91092 11.131 2.36305 9.41725C2.81517 7.70345 3.71468 6.14062 4.96944 4.88879C6.22421 3.63696 7.78914 2.74112 9.50399 2.293L9.77399 2.226L9.88399 2.206L9.88299 2.207Z" fill="#888888"/>
<path d="M14 3.50001V9.00001C14 9.26523 14.1054 9.51958 14.2929 9.70712C14.4804 9.89466 14.7348 10 15 10H20.5C20.6598 9.99997 20.8173 9.96161 20.9593 9.88815C21.1013 9.8147 21.2235 9.70828 21.3159 9.57783C21.4082 9.44737 21.468 9.29668 21.4901 9.13838C21.5122 8.98008 21.4961 8.81878 21.443 8.66801C20.9463 7.25735 20.1396 5.97604 19.0822 4.91845C18.0248 3.86085 16.7436 3.0539 15.333 2.55701C15.1822 2.50375 15.0208 2.48744 14.8623 2.50946C14.7039 2.53148 14.5531 2.59119 14.4225 2.68357C14.2919 2.77594 14.1854 2.8983 14.1119 3.04037C14.0383 3.18243 14 3.34006 14 3.50001Z" fill="#888888"/>
<path d="M9.88299 2.207C10.3587 2.15095 10.8379 2.2766 11.2249 2.55881C11.6119 2.84102 11.878 3.25897 11.97 3.729L11.995 3.896L12 4V11C12 11.2449 12.0899 11.4813 12.2527 11.6644C12.4155 11.8474 12.6397 11.9643 12.883 11.993L13 12H19.8C20.3304 12 20.8391 12.2107 21.2142 12.5858C21.5893 12.9609 21.8 13.4696 21.8 14C21.7999 14.0761 21.7912 14.1519 21.774 14.226C21.3738 15.9527 20.5219 17.5419 19.3055 18.8311C18.0891 20.1202 16.5519 21.0629 14.8513 21.5625C13.1508 22.0622 11.348 22.1009 9.62757 21.6747C7.90715 21.2485 6.33092 20.3727 5.06029 19.137C3.78967 17.9012 2.87031 16.35 2.39636 14.6421C1.92242 12.9342 1.91092 11.131 2.36305 9.41725C2.81517 7.70345 3.71468 6.14062 4.96944 4.88879C6.22421 3.63696 7.78914 2.74112 9.50399 2.293L9.77399 2.226L9.88399 2.206L9.88299 2.207Z" stroke="#888888"/>
<path d="M14 3.50001V9.00001C14 9.26523 14.1054 9.51958 14.2929 9.70712C14.4804 9.89466 14.7348 10 15 10H20.5C20.6598 9.99997 20.8173 9.96161 20.9593 9.88815C21.1013 9.8147 21.2235 9.70828 21.3159 9.57783C21.4082 9.44737 21.468 9.29668 21.4901 9.13838C21.5122 8.98008 21.4961 8.81878 21.443 8.66801C20.9463 7.25735 20.1396 5.97604 19.0822 4.91845C18.0248 3.86085 16.7436 3.0539 15.333 2.55701C15.1822 2.50375 15.0208 2.48744 14.8623 2.50946C14.7039 2.53148 14.5531 2.59119 14.4225 2.68357C14.2919 2.77594 14.1854 2.8983 14.1119 3.04037C14.0383 3.18243 14 3.34006 14 3.50001Z" stroke="#888888"/>
</svg>
